#!OML:ASF F:\VICON\USERDATA\INSTALL\rory3\rory3.ASF
:FULLY-SPECIFIED
:DEGREES
1504
root -0.949106 17.9004 -7.63475 -0.942552 34.2461 -7.8458
lowerback 6.5559 -1.61919 -6.1387
upperback 1.10632 -2.62025 -2.49189
thorax -2.3721 -1.25099 1.08257
lowerneck -19.1656 -5.97578 -11.4185
upperneck 25.1081 -6.40336 5.81675
head 12.0258 -3.21867 3.05717
rclavicle 5.96354e-015 -2.22639e-014
rhumerus -11.905 -60.6654 -0.728542
rradius 42.1079
rwrist 2.71384
rhand -46.0786 -25.301
rfingers 7.12502
rthumb -18.8213 -54.4105
lclavicle 5.96354e-015 -2.22639e-014
lhumerus -41.8833 21.047 50.222
lradius 33.9969
lwrist -7.40384
lhand -10.435 29.3931
lfingers 7.12502
lthumb 15.5648 58.7867
rfemur -18.8799 0.08258 19.1291
rtibia 17.874
rfoot -8.19284 -19.1771
rtoes 21.7116
lfemur -9.23822 -2.61897 -15.3943
ltibia 27.8442
lfoot -17.6162 5.69544
ltoes -10.6685
1505
root -0.949523 17.9021 -7.62402 -0.978989 34.0015 -7.94067
lowerback 6.43818 -1.59476 -5.92652
upperback 1.14392 -2.56042 -2.39602
thorax -2.276 -1.22658 1.05447
lowerneck -19.3358 -6.05475 -11.3676
upperneck 25.08 -6.51867 5.83512
head 12.0588 -3.26005 3.0325
rclavicle 1.38752e-013 1.59028e-014
rhumerus -10.3684 -60.4371 -1.42625
rradius 42.7292
rwrist 3.40381
rhand -46.277 -24.8182
rfingers 7.12502
rthumb -19.0121 -53.909
lclavicle 1.38752e-013 1.59028e-014
lhumerus -41.6244 21.2541 50.3184
lradius 33.9451
lwrist -7.50904
lhand -10.5307 29.6874
lfingers 7.12502
lthumb 15.4725 59.0882
rfemur -18.9106 0.192206 19.2973
rtibia 17.9177
rfoot -8.10101 -19.1344
rtoes 21.3717
lfemur -9.14991 -2.48611 -15.2797
ltibia 27.8354
lfoot -17.6693 5.78581
ltoes -10.5533
1506
root -0.951196 17.8957 -7.61307 -0.967066 33.7935 -7.92032
lowerback 6.32938 -1.58895 -5.78277
upperback 1.19128 -2.53167 -2.37208
thorax -2.17309 -1.21696 0.992642
lowerneck -19.4123 -6.12507 -11.3184
upperneck 24.9596 -6.66623 5.97633
head 12.0447 -3.30128 3.04965
rclavicle 4.09496e-014 5.08889e-014
rhumerus -8.86692 -60.1391 -2.15024
rradius 43.4118
rwrist 3.9288
rhand -46.4939 -24.2459
rfingers 7.12502
rthumb -19.2206 -53.316
lclavicle 4.09496e-014 5.08889e-014
lhumerus -41.3412 21.6428 50.2342
lradius 33.8148
lwrist -7.77792
lhand -10.4873 29.6258
lfingers 7.12502
lthumb 15.5144 59.0233
rfemur -18.9237 0.0539526 19.4555
rtibia 17.9939
rfoot -7.72101 -18.9319
rtoes 19.6123
lfemur -9.07325 -2.36312 -15.2695
ltibia 27.8466
lfoot -17.7346 5.87753
ltoes -10.5361
1507
root -0.951081 17.8874 -7.60083 -0.891381 33.5477 -7.77243
lowerback 6.28014 -1.59518 -5.68029
upperback 1.17126 -2.5313 -2.38476
thorax -2.17147 -1.21748 0.921436
lowerneck -19.4482 -6.16853 -11.3127
upperneck 24.8774 -6.7658 6.11396
head 12.0347 -3.32685 3.08211
rclavicle 6.55989e-015 -2.06736e-014
rhumerus -7.24885 -59.6261 -2.94548
rradius 44.0903
rwrist 4.36042
rhand -46.748 -23.0466
rfingers 7.12502
rthumb -19.465 -52.0923
lclavicle 6.55989e-015 -2.06736e-014
lhumerus -41.272 21.8744 50.0874
lradius 33.78
lwrist -8.00192
lhand -10.2837 29.206
lfingers 7.12502
lthumb 15.7105 58.5883
rfemur -18.8902 -0.391452 19.6228
rtibia 18.0658
rfoot -6.89478 -18.479
rtoes 16.2102
lfemur -8.99468 -2.20413 -15.3919
ltibia 27.8823
lfoot -17.785 6.09565
ltoes -10.983
1508
root -0.951464 17.8853 -7.59192 -0.739802 33.3362 -7.55586
lowerback 6.22316 -1.5937 -5.61073
upperback 1.13684 -2.52328 -2.40886
thorax -2.1799 -1.2135 0.856155
lowerneck -19.4417 -6.21894 -11.3065
upperneck 24.8191 -6.87553 6.23358
head 12.0262 -3.3601 3.10689
rclavicle 1.17283e-013 -9.54166e-015
rhumerus -5.75849 -59.0439 -3.57324
rradius 44.8172
rwrist 4.926
rhand -46.9253 -21.4176
rfingers 7.12502
rthumb -19.6355 -50.446
lclavicle 1.17283e-013 -9.54166e-015
lhumerus -41.2055 21.934 50.0833
lradius 33.8333
lwrist -8.04879
lhand -10.1866 28.7781
lfingers 7.12502
lthumb 15.804 58.153
rfemur -18.9385 -0.60323 19.6065
rtibia 18.1606
rfoot -6.60457 -18.1937
rtoes 14.9234
lfemur -8.95903 -2.114 -15.5802
ltibia 27.9043
lfoot -17.8358 6.25659
ltoes -10.8474
1509
root -0.952607 17.8832 -7.58548 -0.66003 33.1867 -7.52251
lowerback 6.13111 -1.59328 -5.37826
upperback 1.12649 -2.50161 -2.37714
thorax -2.14906 -1.20538 0.755369
lowerneck -19.427 -6.30572 -11.312
upperneck 24.7201 -7.0126 6.28653
head 12.0014 -3.41492 3.10278
rclavicle -4.55217e-014 -5.56597e-014
rhumerus -4.38561 -58.4786 -4.02564
rradius 45.6213
rwrist 5.66303
rhand -46.9693 -20.4841
rfingers 7.12502
rthumb -19.6778 -49.5082
lclavicle -4.55217e-014 -5.56597e-014
lhumerus -41.0499 21.9288 50.2195
lradius 33.9717
lwrist -7.8992
lhand -10.2199 28.4679
lfingers 7.12502
lthumb 15.7718 57.8453
rfemur -19.0468 -0.513917 19.6197
rtibia 18.2374
rfoot -6.89211 -18.1882
rtoes 16.0846
lfemur -8.9488 -2.05987 -15.5969
ltibia 27.8836
lfoot -17.8673 6.40223
ltoes -10.8575
